<svg id="Capa_1" enable-background="new 0 0 512 512" height="512" viewBox="0 0 512 512" width="512" xmlns="http://www.w3.org/2000/svg"><g><path d="m398.6 358.909c65.843-20.431 96.628-73.55 111.45-109.875 5.54-13.577-1.139-28.95-14.753-34.398-21.282-8.518-45.24-26.096-45.24-57.146 0-132.824-141.293-149.761-194.057-149.761s-194.057 16.937-194.057 149.761c0 31.049-23.958 48.628-45.24 57.146-13.614 5.449-20.293 20.822-14.753 34.398 14.822 36.325 45.607 89.444 111.45 109.875z" fill="#e7889d"/><ellipse cx="91.013" cy="171.438" fill="#ffcabd" rx="47.149" ry="51.574"/><ellipse cx="420.986" cy="171.438" fill="#ffcabd" rx="47.149" ry="51.574"/><ellipse cx="256" cy="171.438" fill="#ffdcce" rx="157.922" ry="139.928"/><path d="m364.907 171.778c-53.131 17.454-51.113 17.36-53.861 17.36-2.804 0-.1.303-65.49-21.215-28.449-9.438-59.72-9.779-89.201.001l-57.308 19.011c8.704 69.986 75.648 124.431 156.953 124.431 85.947 0 159.356-62.016 157.889-142.24-16.091-3.48-32.962-2.662-48.982 2.652z" fill="#ffcabd"/><g><g><ellipse cx="169.623" cy="169.321" fill="#eda1ab" rx="31.872" ry="25.381"/><ellipse cx="342.377" cy="169.321" fill="#eda1ab" rx="31.872" ry="25.381"/><ellipse cx="256" cy="149.82" fill="#4e5660" rx="16.918" ry="18.931"/></g><g fill="#4e5660"><path d="m174.951 146.193c-4.143 0-7.5-3.358-7.5-7.5v-12.362c0-4.142 3.357-7.5 7.5-7.5s7.5 3.358 7.5 7.5v12.362c0 4.142-3.357 7.5-7.5 7.5z"/><path d="m337.049 146.193c-4.143 0-7.5-3.358-7.5-7.5v-12.362c0-4.142 3.357-7.5 7.5-7.5s7.5 3.358 7.5 7.5v12.362c0 4.142-3.358 7.5-7.5 7.5z"/></g></g><g><path d="m276.173 498.637-62.492-20.731c-8.213-2.725-17.138-2.757-25.45 0l-50.87 16.875c-10.641 3.53-19.699 3.187-19.599 3.179-34.219-.002-62.059-27.871-62.059-62.124v-157.132c0-26.814 17.1-50.502 42.549-58.945l67.834-22.503c22.327-7.406 46.782-7.616 69.74 0l62.493 20.731c8.146 2.702 17.072 2.779 25.448 0l50.872-16.876c6.359-2.11 12.953-3.179 19.596-3.179 34.221 0 62.061 27.869 62.061 62.124v157.134c0 26.814-17.099 50.502-42.548 58.944l-67.834 22.503c-22.148 7.347-46.603 7.675-69.741 0z" fill="#8de1ce"/><path d="m311.043 220.041c-4.326 0-8.624-.694-12.724-2.054l-62.493-20.731c-11.402-3.782-23.173-5.63-34.87-5.629v284.224c4.309 0 8.606.689 12.724 2.055l62.492 20.731c11.448 3.797 23.217 5.629 34.87 5.627v-284.223z" fill="#6fcd90"/><path d="m126.288 461.404 50.871-16.876c15.451-5.126 32.144-5.126 47.595 0l62.492 20.73c15.451 5.126 32.144 5.126 47.595 0l67.834-22.503c11.018-3.655 18.455-13.958 18.455-25.566v-157.133c0-18.369-17.983-31.35-35.418-25.566l-50.871 16.876c-15.451 5.126-32.144 5.126-47.595 0l-62.492-20.73c-15.451-5.126-32.144-5.126-47.595 0l-67.834 22.503c-11.018 3.655-18.455 13.958-18.455 25.566v157.134c.001 18.368 17.983 31.349 35.418 25.565z" fill="#fbf1cf"/><path d="m126.288 461.404 50.871-16.876c15.451-5.126 32.144-5.126 47.595 0l62.492 20.73c15.451 5.126 32.144 5.126 47.595 0l67.834-22.503c11.018-3.655 18.455-13.958 18.455-25.566v-157.133c0-18.369-17.983-31.35-35.418-25.566l-50.871 16.876c-15.451 5.126-32.144 5.126-47.595 0l-62.492-20.73c-15.451-5.126-32.144-5.126-47.595 0l-67.834 22.503c-11.018 3.655-18.455 13.958-18.455 25.566v157.134c.001 18.368 17.983 31.349 35.418 25.565z" fill="#fbf1cf"/><path d="m90.871 344.637 48.122-15.964c8.811-2.923 14.758-11.162 14.758-20.444v-69.829l-44.425 14.737c-11.018 3.655-18.455 13.958-18.455 25.566z" fill="#8daee1"/></g><path d="m256 19.205c79.709 0 117.834 16.036 134.017 52.409-24.907 19.568-105.732 28.286-134.017.001-28.285 28.285-109.11 19.568-134.017 0 16.183-36.373 54.307-52.41 134.017-52.41z" fill="#e7889d"/><path d="m287.246 251.365-62.492-20.73c-7.725-2.563-15.761-3.844-23.797-3.844v213.894c8.036 0 16.072 1.281 23.797 3.844l62.492 20.731c7.725 2.563 15.761 3.844 23.797 3.844v-213.895c-8.036 0-16.072-1.281-23.797-3.844z" fill="#f7dfb7"/><path d="m287.246 251.365-62.492-20.73c-7.725-2.563-15.761-3.844-23.797-3.844v213.894c8.036 0 16.072 1.281 23.797 3.844l62.492 20.731c7.725 2.563 15.761 3.844 23.797 3.844v-213.895c-8.036 0-16.072-1.281-23.797-3.844z" fill="#f7dfb7"/><path d="m421.129 299.221-105.586 35.026c-2.902.963-6.099.963-9.003-.001l-40.598-13.467c-1.742-.578-2.913-2.2-2.913-4.036v-73.411l-15-4.976v78.387c0 8.312 5.301 15.655 13.19 18.273l40.597 13.467c5.951 1.975 12.506 1.973 18.45 0l100.862-33.459v-15.803z" fill="#6e768f"/><g><path d="m364.068 405.935c0-12.354-12.094-21.084-23.819-17.194l-20.014 6.639c-5.968 1.98-12.416 1.98-18.384 0l-36.92-12.248c-11.726-3.89-23.819 4.84-23.819 17.194v49.629l46.134 15.304c15.451 5.125 32.144 5.125 47.595 0l29.228-9.696v-49.628z" fill="#d1c4e9"/><path d="m287.246 465.259c7.725 2.563 15.761 3.844 23.797 3.844v-72.238c-3.104 0-6.208-.495-9.192-1.485l-36.92-12.248c-11.726-3.89-23.819 4.84-23.819 17.194v49.629z" fill="#b0ade2"/></g><g fill="#ffdcce"><path d="m59.148 296.762c-12.612 8.306-18.471 12.158-28.435 21.453-21.62 20.167-13.194 63.005 24.991 61.359 5.796-5.996 25.679-22.494 38.24-30.916 14.331-9.609 18.159-29.015 8.551-43.346-9.609-14.329-28.937-18.04-43.347-8.55z"/><path d="m452.852 296.762c12.612 8.306 18.471 12.158 28.435 21.453 21.62 20.167 13.194 63.005-24.991 61.359-5.796-5.996-25.679-22.494-38.24-30.916-14.331-9.609-18.159-29.015-8.551-43.346 9.609-14.329 28.937-18.04 43.347-8.55z"/></g></g></svg>